<?xml version="1.0" encoding="utf-8"?>
<!-- Generator: Adobe Illustrator 23.0.4, SVG Export Plug-In . SVG Version: 6.00 Build 0)  -->
<svg version="1.1" id="Layer_1" xmlns="http://www.w3.org/2000/svg" xmlns:xlink="http://www.w3.org/1999/xlink" x="0px" y="0px"
	 viewBox="0 0 472.5 275.6" style="enable-background:new 0 0 472.5 275.6;" xml:space="preserve">
<style type="text/css">
	.st0{fill:none;stroke:#010101;stroke-width:3.9;stroke-miterlimit:10;}
	.st1{fill:none;stroke:#010101;stroke-width:3;stroke-miterlimit:10;}
	.st2{fill:#010101;stroke:#010101;stroke-miterlimit:10;}
	.st3{fill:#010101;}
	.st4{fill:none;stroke:#010101;stroke-width:3;stroke-linecap:square;stroke-miterlimit:10;}
</style>
<g>
	<polygon class="st0" points="314.4,90.2 392.4,45.1 470.4,90.2 470.4,180.2 392.4,225.2 314.4,180.2 	"/>
	<polygon class="st0" points="1.2,90.2 79.2,45.1 157.2,90.2 157.2,180.2 79.2,225.2 1.2,180.2 	"/>
	<path class="st1" d="M22.1,145.1l4.8,4.9l19.9,0.1c1.3-2,3.6-3.3,6.3-3.3c2.7,0,5.1,1.4,6.4,3.5l20.1,0.2c1.4-4.6,5.1-8.2,9.7-9.5
		l0-19.8c-1-1-1.7-2.4-1.7-4c0-3.1,2.5-5.7,5.7-5.7l0.4,0l17-17.4c0-0.2,0-0.4,0-0.6c0-3.4,2.8-6.2,6.2-6.2c3.4,0,6.2,2.8,6.2,6.2
		c0,3.4-2.8,6.2-6.2,6.2c-0.1,0,0,0,0,0l-17.9,17.1c0,0.1,0,0.2,0,0.4c0,1.5-0.6,2.9-1.6,3.9l-0.1,19.9c6,1.7,10.4,7.3,10.4,13.8
		c0,2.5-0.6,4.8-1.7,6.8l0.2,0.3l9.3,9.6c2.7,0.2,4.9,2.5,4.9,5.3c0,3-2.4,5.4-5.4,5.4c-2.9,0-5.2-2.3-5.4-5.1l-9.7-9.5
		c-2,1-4.3,1.6-6.7,1.6c-6.7,0-12.3-4.6-13.9-10.7l-20.1,0.1c-1.4,2-3.6,3.3-6.2,3.3c-2.6,0-4.9-1.3-6.3-3.3l-27.9,0.1"/>
	<polygon class="st0" points="157.8,90.2 235.8,45.1 313.8,90.2 313.8,180.2 235.8,225.2 157.8,180.2 	"/>
	<rect x="325.6" y="145.2" class="st2" width="2.6" height="12.7"/>
	<rect x="372.6" y="146.2" class="st2" width="2.2" height="11.7"/>
	<rect x="369.2" y="140.6" class="st2" width="2.6" height="17.3"/>
	<rect x="366" y="135.8" class="st2" width="2.6" height="22.1"/>
	<rect x="362.9" y="138.9" class="st2" width="2.6" height="18.9"/>
	<rect x="359.7" y="134.6" class="st2" width="2.6" height="23.3"/>
	<rect x="356.6" y="137.3" class="st2" width="2.6" height="20.6"/>
	<rect x="353.4" y="141.4" class="st2" width="2.6" height="16.5"/>
	<rect x="350.3" y="135.4" class="st2" width="2.6" height="22.5"/>
	<rect x="347.1" y="138.9" class="st2" width="2.6" height="18.9"/>
	<rect x="344" y="145.2" class="st2" width="2.6" height="12.7"/>
	<rect x="340.8" y="140.8" class="st2" width="2.6" height="17.1"/>
	<rect x="337.7" y="138.3" class="st2" width="2.6" height="19.5"/>
	<rect x="334.5" y="142.7" class="st2" width="2.6" height="15.2"/>
	<rect x="331.4" y="142.1" class="st2" width="2.6" height="15.8"/>
	<rect x="328.2" y="138.9" class="st2" width="2.6" height="18.9"/>
	<rect x="422.5" y="145.2" class="st2" width="2.6" height="12.7"/>
	<rect x="394" y="137.3" class="st2" width="2.2" height="20"/>
	<rect x="390.9" y="140" class="st2" width="2.6" height="17.3"/>
	<rect x="388" y="135.2" class="st2" width="2.6" height="22.1"/>
	<rect x="385.1" y="141.4" class="st2" width="2.6" height="15.9"/>
	<rect x="457.1" y="146.2" class="st2" width="2.6" height="11.7"/>
	<rect x="454" y="137.3" class="st2" width="2.6" height="20.6"/>
	<rect x="450.8" y="140.6" class="st2" width="2.6" height="17.3"/>
	<rect x="447.7" y="142.7" class="st2" width="2.6" height="15.2"/>
	<rect x="444.5" y="138.9" class="st2" width="2.6" height="18.9"/>
	<rect x="441.4" y="145.2" class="st2" width="2.6" height="12.7"/>
	<rect x="438.2" y="140.8" class="st2" width="2.6" height="17.1"/>
	<rect x="435.1" y="142.7" class="st2" width="2.6" height="15.2"/>
	<rect x="431.9" y="138.3" class="st2" width="2.6" height="19.5"/>
	<rect x="428.8" y="135.4" class="st2" width="2.6" height="22.5"/>
	<rect x="425.6" y="138.9" class="st2" width="2.6" height="18.9"/>
	<rect x="396.9" y="145.6" class="st2" width="2.2" height="11.7"/>
	<rect x="325.1" y="157.1" class="st3" width="134.7" height="1.6"/>
	<g>
		<rect x="343.7" y="111.3" class="st2" width="31" height="7.1"/>
		<rect x="385.1" y="111.3" class="st2" width="14.8" height="7.1"/>
		<rect x="422.5" y="111.3" class="st2" width="28.4" height="7.1"/>
		<rect x="374.7" y="114.1" class="st3" width="10.4" height="1.6"/>
		<rect x="399.9" y="114.1" class="st3" width="22.6" height="1.6"/>
		<rect x="325.1" y="113.6" class="st2" width="18.4" height="2.6"/>
		<rect x="450.9" y="113.6" class="st2" width="8.8" height="2.6"/>
	</g>
	<g>
		<path class="st1" d="M214.9,150.2"/>
		<polyline class="st1" points="214.9,150.2 259.6,89.7 304.4,150.2 		"/>
		<polyline class="st1" points="166.9,161.6 206.1,117.1 223.5,136.9 		"/>
		<polyline class="st1" points="223.2,176.9 262.4,132.4 279.8,152.2 		"/>
		<polyline class="st4" points="259.4,110.7 251.4,120.4 246.9,108.6 		"/>
		<path class="st1" d="M253.7,132.3"/>
		<path class="st1" d="M218.2,126.3"/>
		<polyline class="st4" points="271.7,107 268.9,119.3 259.6,110.8 		"/>
		<polyline class="st4" points="205.2,134.3 197.3,143.8 193,132.2 		"/>
		<polyline class="st4" points="217.2,130.7 214.6,142.8 205.4,134.4 		"/>
	</g>
</g>
<g>
	<g>
		<path d="M251.1,224.7l2-1.2l0.1,0.1L251,225l-2.2-3.7l0.1-0.1L251.1,224.7z"/>
		<path d="M252.7,222c-0.2-0.4-0.3-0.8-0.2-1.2s0.3-0.7,0.6-0.9c0.4-0.2,0.7-0.3,1.1-0.1c0.4,0.1,0.7,0.4,0.9,0.8l0.1,0.1
			c0.2,0.4,0.3,0.8,0.2,1.2c-0.1,0.4-0.3,0.7-0.6,0.9c-0.4,0.2-0.7,0.3-1.1,0.1c-0.4-0.1-0.7-0.4-0.9-0.8L252.7,222z M252.9,222.1
			c0.2,0.3,0.5,0.6,0.8,0.7c0.3,0.1,0.7,0.1,1-0.1c0.3-0.2,0.5-0.5,0.6-0.8c0.1-0.4,0-0.7-0.2-1l-0.1-0.1c-0.2-0.3-0.5-0.6-0.8-0.7
			c-0.3-0.1-0.7-0.1-1,0.1c-0.3,0.2-0.5,0.5-0.6,0.8c-0.1,0.4,0,0.7,0.2,1L252.9,222.1z"/>
		<path d="M255.7,220.4c-0.3-0.4-0.4-0.8-0.3-1.2c0-0.4,0.2-0.6,0.5-0.8c0.2-0.1,0.4-0.2,0.6-0.2c0.2,0,0.4,0.1,0.6,0.2l-0.3-0.5
			l0.1-0.1l0.5,0.8c0,0,0,0,0,0s0,0,0,0l0.7,1.1c0,0,0,0,0,0c0,0,0,0,0,0l0.5,0.8c0.2,0.3,0.3,0.7,0.2,1c-0.1,0.3-0.3,0.5-0.6,0.7
			c-0.1,0.1-0.3,0.1-0.4,0.2c-0.2,0.1-0.3,0.1-0.4,0.1l0-0.2c0.2,0,0.3,0,0.4-0.1c0.1,0,0.3-0.1,0.4-0.2c0.3-0.2,0.5-0.4,0.5-0.6
			c0.1-0.3,0-0.5-0.2-0.8l-0.3-0.4c0,0.2-0.1,0.4-0.2,0.6c-0.1,0.2-0.3,0.3-0.5,0.5c-0.3,0.2-0.6,0.2-1,0.1
			C256.2,221.1,256,220.8,255.7,220.4L255.7,220.4z M255.9,220.3c0.2,0.4,0.5,0.6,0.8,0.8c0.3,0.1,0.6,0.1,0.9-0.1
			c0.2-0.1,0.4-0.3,0.5-0.5c0.1-0.2,0.1-0.4,0.1-0.6l-0.8-1.3c-0.2-0.1-0.4-0.2-0.6-0.3c-0.2,0-0.5,0-0.7,0.2
			c-0.3,0.2-0.4,0.4-0.5,0.7C255.5,219.5,255.6,219.9,255.9,220.3L255.9,220.3z"/>
		<path d="M258.4,218.7c-0.2-0.4-0.3-0.8-0.2-1.2c0.1-0.4,0.3-0.7,0.6-0.9c0.4-0.2,0.7-0.3,1.1-0.1c0.4,0.1,0.7,0.4,0.9,0.8l0.1,0.1
			c0.2,0.4,0.3,0.8,0.2,1.2c-0.1,0.4-0.3,0.7-0.6,0.9c-0.4,0.2-0.7,0.3-1.1,0.1c-0.4-0.1-0.7-0.4-0.9-0.8L258.4,218.7z M258.6,218.7
			c0.2,0.3,0.5,0.6,0.8,0.7c0.3,0.1,0.7,0.1,1-0.1c0.3-0.2,0.5-0.5,0.6-0.8c0.1-0.4,0-0.7-0.2-1l-0.1-0.1c-0.2-0.3-0.5-0.6-0.8-0.7
			c-0.3-0.1-0.7-0.1-1,0.1c-0.3,0.2-0.5,0.5-0.6,0.8c0,0.4,0,0.7,0.2,1L258.6,218.7z"/>
		<path d="M264.8,215.1c0.2,0.4,0.4,0.8,0.3,1.2s-0.2,0.6-0.5,0.8c-0.2,0.1-0.4,0.2-0.6,0.2s-0.4,0-0.6-0.1l0.2,0.4l-0.1,0.1
			l-0.4-0.7c0,0,0,0,0,0c0,0,0,0,0,0l-0.7-1.1c0,0,0,0,0,0c0,0,0,0,0,0l-1.2-2l0.1-0.1l1,1.7c0-0.2,0-0.4,0.1-0.6s0.3-0.3,0.5-0.5
			c0.3-0.2,0.6-0.2,1-0.1C264.2,214.3,264.5,214.6,264.8,215.1L264.8,215.1z M264.7,215.1c-0.2-0.4-0.5-0.6-0.8-0.8
			c-0.3-0.1-0.6-0.1-0.9,0c-0.3,0.2-0.4,0.3-0.5,0.6c-0.1,0.2-0.1,0.4,0,0.7l0.8,1.3c0.2,0.1,0.4,0.2,0.6,0.2s0.4-0.1,0.7-0.2
			c0.3-0.2,0.4-0.4,0.5-0.7S264.9,215.5,264.7,215.1L264.7,215.1z"/>
		<path d="M266.8,215l0.3,0.2l0,0l0-0.1l-0.5-3l0.2-0.1l0.7,3.9c0,0.2,0,0.4,0,0.6c0,0.2-0.1,0.3-0.4,0.5c0,0-0.1,0-0.1,0.1
			c0,0-0.1,0-0.1,0l-0.1-0.1c0,0,0.1,0,0.1,0s0.1,0,0.1,0c0.2-0.1,0.2-0.2,0.3-0.4c0-0.1,0-0.3,0-0.5l-0.1-0.5l-2.7-2.1l0.1-0.1
			L266.8,215z"/>
		<path d="M271.7,212.5L271.7,212.5l-0.5-4.4l0.2-0.1l2.2,3.7l-0.1,0.1l-2-3.3l0,0l0.5,4.2l-0.1,0.1l-3.5-2.5l0,0l2,3.4l-0.1,0.1
			l-2.2-3.7l0.2-0.1L271.7,212.5z"/>
		<path d="M275.9,209.7c0,0.2-0.1,0.4-0.2,0.6c-0.1,0.2-0.3,0.4-0.6,0.6c-0.3,0.1-0.5,0.2-0.7,0.1c-0.2-0.1-0.4-0.2-0.5-0.4
			c-0.1-0.2-0.1-0.5,0-0.8c0.1-0.3,0.4-0.5,0.7-0.7l0.8-0.5l-0.2-0.4c-0.1-0.2-0.3-0.4-0.5-0.4c-0.2,0-0.5,0-0.7,0.2
			c-0.2,0.1-0.4,0.3-0.5,0.5c-0.1,0.2-0.1,0.4,0,0.6l-0.1,0.1l0,0c-0.1-0.2-0.2-0.4-0.1-0.7c0.1-0.2,0.3-0.5,0.6-0.6
			c0.3-0.2,0.6-0.2,0.8-0.2c0.3,0,0.5,0.2,0.6,0.5l0.8,1.4c0.1,0.1,0.1,0.2,0.2,0.3c0.1,0.1,0.1,0.2,0.2,0.2l-0.2,0.1
			c-0.1-0.1-0.2-0.2-0.2-0.2C276,209.8,275.9,209.8,275.9,209.7L275.9,209.7z M275,210.7c0.3-0.2,0.5-0.4,0.6-0.6
			c0.1-0.2,0.2-0.5,0.1-0.8l-0.4-0.6l-0.8,0.5c-0.3,0.2-0.5,0.4-0.6,0.6c-0.1,0.2-0.1,0.5,0,0.7c0.1,0.2,0.3,0.3,0.4,0.3
			C274.6,210.9,274.8,210.8,275,210.7z"/>
		<path d="M275.7,206.8l0.3,0.5c0-0.2,0-0.5,0.1-0.7c0.1-0.2,0.3-0.4,0.5-0.5c0.3-0.2,0.6-0.2,0.8-0.1c0.3,0.1,0.5,0.4,0.7,0.8
			l0.9,1.6l-0.1,0.1l-0.9-1.6c-0.2-0.4-0.4-0.6-0.7-0.7c-0.2-0.1-0.5,0-0.7,0.1c-0.3,0.2-0.5,0.4-0.5,0.6c-0.1,0.3,0,0.5,0.1,0.8
			l1,1.8l-0.1,0.1l-0.8-1.4l0,0c0,0,0-0.1-0.1-0.1c0,0,0-0.1-0.1-0.1l-0.7-1.1L275.7,206.8z"/>
		<path d="M279.1,206.6c-0.3-0.4-0.4-0.8-0.3-1.2c0-0.4,0.2-0.6,0.5-0.8c0.2-0.1,0.4-0.2,0.6-0.2c0.2,0,0.4,0.1,0.6,0.2l-1-1.7
			l0.1-0.1l1.2,2c0,0,0,0,0,0c0,0,0,0,0,0l0.7,1.1c0,0,0,0,0,0c0,0,0,0,0,0l0.4,0.8l-0.1,0.1l-0.3-0.4c0,0.2-0.1,0.4-0.2,0.6
			c-0.1,0.2-0.3,0.3-0.5,0.5c-0.3,0.2-0.6,0.2-1,0.1C279.7,207.4,279.4,207.1,279.1,206.6L279.1,206.6z M279.3,206.6
			c0.2,0.4,0.5,0.6,0.8,0.8c0.3,0.1,0.6,0.1,0.9-0.1c0.2-0.1,0.4-0.3,0.5-0.5c0.1-0.2,0.1-0.4,0.1-0.6l-0.8-1.3
			c-0.2-0.2-0.4-0.3-0.6-0.3c-0.2,0-0.5,0-0.7,0.2c-0.3,0.2-0.4,0.4-0.5,0.7C278.9,205.8,279,206.1,279.3,206.6L279.3,206.6z"/>
		<path d="M283.3,205.3l0.3,0.2l0,0l0-0.1l-0.5-3l0.2-0.1l0.7,3.9c0,0.2,0,0.4,0,0.6c0,0.2-0.1,0.3-0.4,0.5c0,0-0.1,0-0.1,0.1
			c0,0-0.1,0-0.1,0l-0.1-0.1c0,0,0.1,0,0.1,0c0,0,0.1,0,0.1,0c0.2-0.1,0.2-0.2,0.3-0.4c0-0.1,0-0.3,0-0.5l-0.1-0.5l-2.7-2.1l0.1-0.1
			L283.3,205.3z"/>
		<path d="M285.7,202.2l1,1.7l-0.1,0.1l-2.2-3.7l1.2-0.7c0.4-0.2,0.7-0.3,1-0.3s0.6,0.2,0.7,0.5c0.1,0.2,0.2,0.4,0.1,0.7
			c0,0.2-0.1,0.5-0.4,0.6c0.3-0.1,0.5-0.1,0.7,0c0.2,0.1,0.4,0.2,0.5,0.5l0.2,0.3c0.1,0.1,0.1,0.2,0.2,0.3c0.1,0.1,0.2,0.1,0.3,0.1
			l0,0.1l-0.1,0.1c-0.1,0-0.2-0.1-0.3-0.2c-0.1-0.1-0.2-0.2-0.2-0.3l-0.2-0.3c-0.1-0.2-0.3-0.4-0.6-0.4c-0.3,0-0.5,0-0.9,0.2
			L285.7,202.2z M285.7,202.1l1-0.6c0.4-0.2,0.6-0.5,0.7-0.7s0.1-0.5-0.1-0.7c-0.2-0.3-0.4-0.4-0.6-0.5c-0.3,0-0.6,0-0.9,0.3
			l-1.1,0.6L285.7,202.1z"/>
		<path d="M288.1,198.3l-0.1,0.1l-0.2-0.4l0.1-0.1L288.1,198.3z M290.2,201.9L290,202l-1.6-2.7l0.1-0.1L290.2,201.9z"/>
		<path d="M292,200.8c0.2-0.1,0.4-0.3,0.5-0.5c0.1-0.2,0.1-0.5-0.1-0.7l0.1-0.1l0,0c0.2,0.3,0.2,0.5,0.1,0.8
			c-0.1,0.3-0.3,0.5-0.6,0.7c-0.3,0.2-0.7,0.2-1,0.1s-0.6-0.4-0.9-0.8l-0.1-0.1c-0.2-0.4-0.3-0.8-0.3-1.2s0.2-0.7,0.6-0.9
			c0.3-0.2,0.6-0.2,0.9-0.2s0.5,0.2,0.7,0.5l0,0l-0.1,0.1c-0.2-0.3-0.4-0.4-0.6-0.5c-0.3,0-0.5,0-0.7,0.2c-0.3,0.2-0.5,0.4-0.5,0.8
			c0,0.3,0.1,0.7,0.3,1l0.1,0.1c0.2,0.4,0.5,0.6,0.8,0.7C291.3,201,291.6,201,292,200.8z"/>
		<path d="M292.6,197.6c0-0.2,0-0.5,0.1-0.7c0.1-0.2,0.3-0.4,0.5-0.5c0.3-0.2,0.6-0.2,0.8-0.1c0.3,0.1,0.5,0.3,0.7,0.7l1,1.7
			l-0.1,0.1l-1-1.7c-0.2-0.4-0.4-0.6-0.6-0.6c-0.2-0.1-0.4,0-0.7,0.1c-0.3,0.2-0.5,0.4-0.5,0.6c-0.1,0.3,0,0.5,0.1,0.8l1,1.7
			l-0.1,0.1l-0.8-1.4l0,0c0,0,0-0.1-0.1-0.1c0,0,0,0,0-0.1l-1.4-2.4l0.1-0.1L292.6,197.6z"/>
		<path d="M297.5,197.7c-0.3,0.2-0.7,0.2-1,0.1c-0.4-0.1-0.7-0.4-0.9-0.7l-0.1-0.2c-0.2-0.4-0.3-0.8-0.2-1.2
			c0.1-0.4,0.3-0.7,0.6-0.9c0.3-0.2,0.6-0.2,0.9-0.1c0.3,0.1,0.5,0.3,0.8,0.7l0.1,0.2l-2,1.2l0,0l0.1,0.2c0.2,0.3,0.5,0.6,0.8,0.7
			c0.3,0.1,0.6,0.1,0.9-0.1c0.2-0.1,0.3-0.2,0.4-0.4c0.1-0.1,0.2-0.3,0.2-0.5l0.1,0.1c0,0.2-0.1,0.3-0.2,0.5
			C297.9,197.4,297.7,197.6,297.5,197.7z M295.9,195c-0.3,0.2-0.5,0.4-0.5,0.7c-0.1,0.3,0,0.6,0.1,0.9l0,0l1.9-1.1l0-0.1
			c-0.2-0.3-0.4-0.5-0.6-0.6C296.5,194.8,296.2,194.8,295.9,195z"/>
		<path d="M298.8,193.3l-0.2,0.1c-0.2,0.1-0.4,0.3-0.5,0.6c-0.1,0.2,0,0.5,0.1,0.8l1.1,1.8l-0.1,0.1l-1.6-2.7l0.1-0.1l0.3,0.5
			l0.1,0.1c0-0.2,0-0.5,0.1-0.7c0.1-0.2,0.2-0.4,0.5-0.5c0,0,0.1,0,0.1-0.1c0,0,0.1,0,0.1,0L298.8,193.3z"/>
	</g>
</g>
<g>
	<path d="M4.5,8.3h10.2c2.4,0,4.1,0.5,5.3,1.5s1.8,2.4,1.8,4.3c0,1-0.1,1.9-0.4,2.5c-0.3,0.7-0.7,1.2-1.1,1.6
		c-0.4,0.4-0.8,0.7-1.2,0.9c-0.4,0.2-0.7,0.3-0.9,0.4v0.1c0.3,0,0.7,0.1,1,0.3c0.4,0.2,0.7,0.4,1,0.8c0.3,0.4,0.6,0.8,0.8,1.4
		c0.2,0.6,0.3,1.3,0.3,2.1c0,1.3,0.1,2.4,0.3,3.4c0.2,1,0.5,1.8,0.9,2.2h-4c-0.3-0.5-0.4-1-0.5-1.5S18,27.1,18,26.6
		c0-1-0.1-1.8-0.2-2.5c-0.1-0.7-0.3-1.3-0.7-1.8c-0.3-0.5-0.8-0.8-1.3-1c-0.6-0.2-1.3-0.3-2.1-0.3H8.3v8.8H4.5V8.3z M8.3,18.1h6.2
		c1.2,0,2.1-0.3,2.7-0.9c0.6-0.6,0.9-1.4,0.9-2.6c0-0.7-0.1-1.2-0.3-1.7c-0.2-0.4-0.5-0.8-0.8-1c-0.4-0.2-0.8-0.4-1.2-0.5
		c-0.5-0.1-0.9-0.1-1.4-0.1H8.3V18.1z"/>
	<path d="M32.3,30.2c-1.2,0-2.3-0.2-3.3-0.6c-1-0.4-1.8-1-2.5-1.7c-0.7-0.7-1.2-1.6-1.5-2.6c-0.4-1-0.5-2.1-0.5-3.3
		c0-1.2,0.2-2.3,0.5-3.3c0.3-1,0.9-1.9,1.5-2.6c0.7-0.7,1.5-1.3,2.5-1.7c1-0.4,2.1-0.6,3.3-0.6c1.2,0,2.3,0.2,3.3,0.6
		c1,0.4,1.8,1,2.5,1.7c0.7,0.7,1.2,1.6,1.5,2.6c0.3,1,0.5,2.1,0.5,3.3c0,1.2-0.2,2.3-0.5,3.3c-0.4,1-0.9,1.9-1.5,2.6
		c-0.7,0.7-1.5,1.3-2.5,1.7C34.6,30,33.5,30.2,32.3,30.2z M32.3,27.5c0.8,0,1.4-0.2,2-0.5c0.6-0.3,1-0.7,1.4-1.3
		c0.4-0.5,0.6-1.1,0.8-1.8s0.3-1.3,0.3-2c0-0.7-0.1-1.3-0.3-2s-0.4-1.2-0.8-1.8c-0.4-0.5-0.8-0.9-1.4-1.2c-0.6-0.3-1.2-0.5-2-0.5
		c-0.8,0-1.4,0.2-2,0.5c-0.6,0.3-1,0.7-1.4,1.2c-0.4,0.5-0.6,1.1-0.8,1.8s-0.3,1.3-0.3,2c0,0.7,0.1,1.3,0.3,2s0.4,1.2,0.8,1.8
		c0.4,0.5,0.8,0.9,1.4,1.3C30.8,27.3,31.5,27.5,32.3,27.5z"/>
	<path d="M53.4,19.4c-0.1-1-0.5-1.7-1.2-2.2c-0.6-0.5-1.4-0.7-2.4-0.7c-0.4,0-0.9,0.1-1.4,0.2s-1,0.4-1.4,0.8c-0.4,0.4-0.8,1-1,1.7
		c-0.3,0.7-0.4,1.7-0.4,2.9c0,0.6,0.1,1.3,0.2,1.9c0.2,0.6,0.4,1.2,0.7,1.7c0.3,0.5,0.8,0.9,1.3,1.2c0.5,0.3,1.1,0.5,1.9,0.5
		c1,0,1.8-0.3,2.5-0.9c0.6-0.6,1.1-1.5,1.2-2.6h3.4c-0.3,2-1.1,3.6-2.3,4.6c-1.2,1.1-2.8,1.6-4.8,1.6c-1.2,0-2.3-0.2-3.2-0.6
		s-1.7-1-2.4-1.7c-0.6-0.7-1.1-1.6-1.5-2.5c-0.3-1-0.5-2-0.5-3.2c0-1.2,0.2-2.2,0.5-3.3s0.8-1.9,1.4-2.7c0.6-0.8,1.4-1.3,2.4-1.8
		c0.9-0.4,2.1-0.6,3.3-0.6c0.9,0,1.8,0.1,2.6,0.3c0.8,0.2,1.5,0.6,2.2,1c0.6,0.5,1.1,1,1.5,1.7c0.4,0.7,0.6,1.5,0.7,2.5H53.4z"/>
	<path d="M59.7,8.3h3.4v12.2l6.2-6.3h4.2l-5.9,5.7l6.5,9.8h-4.2l-4.7-7.5l-2,2v5.5h-3.4V8.3z"/>
	<path d="M74,14.2h3.8l4.1,11.6h0.1l3.9-11.6h3.6l-6,16.3c-0.3,0.7-0.6,1.4-0.8,2c-0.3,0.6-0.6,1.2-1,1.7c-0.4,0.5-0.9,0.9-1.5,1.2
		s-1.3,0.4-2.2,0.4c-0.8,0-1.6-0.1-2.4-0.2v-2.9c0.3,0,0.5,0.1,0.8,0.1c0.3,0,0.5,0.1,0.8,0.1c0.4,0,0.7,0,1-0.1
		c0.3-0.1,0.5-0.2,0.6-0.4s0.3-0.4,0.4-0.7c0.1-0.3,0.2-0.6,0.3-0.9l0.4-1.2L74,14.2z"/>
	<path d="M100.1,8.3h5.3l5.9,16.8h0.1l5.8-16.8h5.2v21.4h-3.6V13.2h-0.1l-5.9,16.5h-3.1l-5.9-16.5h-0.1v16.5h-3.6V8.3z"/>
	<path d="M133.4,30.2c-1.2,0-2.3-0.2-3.3-0.6c-1-0.4-1.8-1-2.5-1.7c-0.7-0.7-1.2-1.6-1.5-2.6c-0.4-1-0.5-2.1-0.5-3.3
		c0-1.2,0.2-2.3,0.5-3.3c0.3-1,0.9-1.9,1.5-2.6c0.7-0.7,1.5-1.3,2.5-1.7c1-0.4,2.1-0.6,3.3-0.6c1.2,0,2.3,0.2,3.3,0.6
		c1,0.4,1.8,1,2.5,1.7c0.7,0.7,1.2,1.6,1.5,2.6c0.3,1,0.5,2.1,0.5,3.3c0,1.2-0.2,2.3-0.5,3.3c-0.4,1-0.9,1.9-1.5,2.6
		c-0.7,0.7-1.5,1.3-2.5,1.7C135.8,30,134.7,30.2,133.4,30.2z M133.4,27.5c0.8,0,1.4-0.2,2-0.5c0.6-0.3,1-0.7,1.4-1.3
		c0.4-0.5,0.6-1.1,0.8-1.8s0.3-1.3,0.3-2c0-0.7-0.1-1.3-0.3-2s-0.4-1.2-0.8-1.8c-0.4-0.5-0.8-0.9-1.4-1.2c-0.6-0.3-1.2-0.5-2-0.5
		c-0.8,0-1.4,0.2-2,0.5c-0.6,0.3-1,0.7-1.4,1.2c-0.4,0.5-0.6,1.1-0.8,1.8s-0.3,1.3-0.3,2c0,0.7,0.1,1.3,0.3,2s0.4,1.2,0.8,1.8
		c0.4,0.5,0.8,0.9,1.4,1.3C132,27.3,132.7,27.5,133.4,27.5z"/>
	<path d="M157.7,29.8h-3.4v-2.2h-0.1c-0.4,0.8-1,1.4-1.9,1.9c-0.8,0.5-1.7,0.7-2.5,0.7c-2,0-3.5-0.5-4.4-1.5c-0.9-1-1.4-2.5-1.4-4.6
		v-9.8h3.4v9.5c0,1.4,0.3,2.3,0.8,2.9c0.5,0.6,1.2,0.8,2.2,0.8c0.7,0,1.3-0.1,1.8-0.3c0.5-0.2,0.9-0.5,1.2-0.9
		c0.3-0.4,0.5-0.8,0.6-1.3c0.1-0.5,0.2-1.1,0.2-1.7v-9h3.4V29.8z"/>
	<path d="M161.3,14.2h3.2v2.3l0.1,0.1c0.5-0.9,1.2-1.5,2-2c0.8-0.5,1.8-0.7,2.8-0.7c1.7,0,3,0.4,4,1.3c1,0.9,1.5,2.2,1.5,4v10.6
		h-3.4V20c0-1.2-0.3-2.1-0.8-2.7s-1.2-0.8-2.2-0.8c-0.6,0-1.1,0.1-1.6,0.3c-0.5,0.2-0.9,0.5-1.2,0.9c-0.3,0.4-0.6,0.8-0.8,1.3
		c-0.2,0.5-0.3,1-0.3,1.6v9.1h-3.4V14.2z"/>
	<path d="M177,14.2h2.6V9.6h3.4v4.7h3.1v2.5H183v8.3c0,0.4,0,0.7,0,0.9c0,0.3,0.1,0.5,0.2,0.7c0.1,0.2,0.3,0.3,0.5,0.4
		c0.2,0.1,0.5,0.1,0.9,0.1c0.2,0,0.5,0,0.7,0c0.2,0,0.5,0,0.7-0.1v2.6c-0.4,0-0.8,0.1-1.1,0.1c-0.4,0-0.7,0.1-1.1,0.1
		c-0.9,0-1.6-0.1-2.2-0.3c-0.6-0.2-1-0.4-1.3-0.8c-0.3-0.3-0.5-0.7-0.6-1.2c-0.1-0.5-0.2-1.1-0.2-1.7v-9.1H177V14.2z"/>
	<path d="M201.5,26.3c0,0.4,0.1,0.7,0.2,0.9c0.1,0.2,0.3,0.3,0.6,0.3c0.1,0,0.2,0,0.4,0c0.1,0,0.3,0,0.5-0.1v2.4
		c-0.1,0-0.3,0.1-0.5,0.1c-0.2,0-0.4,0.1-0.6,0.1c-0.2,0-0.4,0.1-0.6,0.1c-0.2,0-0.4,0-0.5,0c-0.7,0-1.3-0.1-1.7-0.4
		c-0.5-0.3-0.8-0.8-0.9-1.5c-0.7,0.7-1.5,1.1-2.5,1.4c-1,0.3-1.9,0.4-2.9,0.4c-0.7,0-1.4-0.1-2-0.3c-0.6-0.2-1.2-0.5-1.7-0.8
		c-0.5-0.4-0.9-0.8-1.2-1.4c-0.3-0.6-0.4-1.2-0.4-2c0-1,0.2-1.7,0.5-2.3c0.3-0.6,0.8-1.1,1.4-1.4c0.6-0.3,1.2-0.6,1.9-0.7
		c0.7-0.1,1.4-0.3,2.1-0.3c0.6-0.1,1.2-0.2,1.8-0.3c0.6,0,1.1-0.1,1.5-0.3c0.4-0.1,0.8-0.3,1-0.6c0.2-0.2,0.4-0.6,0.4-1.1
		c0-0.4-0.1-0.8-0.3-1.1c-0.2-0.3-0.5-0.5-0.8-0.6s-0.7-0.2-1-0.3c-0.4,0-0.7-0.1-1.1-0.1c-1,0-1.8,0.2-2.4,0.6c-0.6,0.4-1,1-1,1.9
		h-3.4c0.1-1,0.3-1.8,0.7-2.5c0.4-0.7,1-1.2,1.6-1.6c0.6-0.4,1.4-0.7,2.2-0.8c0.8-0.2,1.7-0.2,2.5-0.2c0.8,0,1.5,0.1,2.2,0.2
		c0.7,0.2,1.4,0.4,2,0.8c0.6,0.4,1.1,0.8,1.4,1.4c0.4,0.6,0.5,1.3,0.5,2.1V26.3z M198.1,22c-0.5,0.3-1.2,0.5-1.9,0.6
		c-0.8,0.1-1.5,0.2-2.3,0.3c-0.4,0.1-0.7,0.1-1,0.3c-0.3,0.1-0.6,0.3-0.9,0.5c-0.3,0.2-0.5,0.4-0.6,0.8s-0.2,0.7-0.2,1.1
		c0,0.4,0.1,0.7,0.3,1c0.2,0.3,0.5,0.5,0.8,0.6s0.6,0.3,1,0.3s0.7,0.1,1,0.1c0.4,0,0.8,0,1.2-0.2c0.4-0.1,0.9-0.3,1.2-0.5
		c0.4-0.2,0.7-0.5,1-0.9c0.3-0.4,0.4-0.8,0.4-1.4V22z"/>
	<path d="M205.3,8.3h3.4v3.2h-3.4V8.3z M205.3,14.2h3.4v15.5h-3.4V14.2z"/>
	<path d="M212.4,14.2h3.2v2.3l0.1,0.1c0.5-0.9,1.2-1.5,2-2c0.8-0.5,1.8-0.7,2.8-0.7c1.7,0,3,0.4,4,1.3c1,0.9,1.5,2.2,1.5,4v10.6
		h-3.4V20c0-1.2-0.3-2.1-0.8-2.7c-0.5-0.6-1.2-0.8-2.2-0.8c-0.6,0-1.1,0.1-1.6,0.3c-0.5,0.2-0.9,0.5-1.2,0.9
		c-0.3,0.4-0.6,0.8-0.8,1.3c-0.2,0.5-0.3,1-0.3,1.6v9.1h-3.4V14.2z"/>
	<path d="M238.5,8.3h10.2c2.4,0,4.1,0.5,5.3,1.5c1.2,1,1.8,2.4,1.8,4.3c0,1-0.1,1.9-0.5,2.5c-0.3,0.7-0.6,1.2-1,1.6
		c-0.4,0.4-0.8,0.7-1.2,0.9c-0.4,0.2-0.7,0.3-0.9,0.4v0.1c0.3,0,0.7,0.1,1,0.3c0.4,0.2,0.7,0.4,1,0.8c0.3,0.4,0.6,0.8,0.8,1.4
		c0.2,0.6,0.3,1.3,0.3,2.1c0,1.3,0.1,2.4,0.3,3.4c0.2,1,0.5,1.8,0.9,2.2h-4c-0.3-0.5-0.4-1-0.5-1.5s-0.1-1.1-0.1-1.6
		c0-1-0.1-1.8-0.2-2.5c-0.1-0.7-0.3-1.3-0.7-1.8c-0.3-0.5-0.8-0.8-1.3-1c-0.6-0.2-1.3-0.3-2.1-0.3h-5.5v8.8h-3.8V8.3z M242.2,18.1
		h6.1c1.2,0,2.1-0.3,2.7-0.9c0.6-0.6,0.9-1.4,0.9-2.6c0-0.7-0.1-1.2-0.3-1.7c-0.2-0.4-0.5-0.8-0.8-1c-0.3-0.2-0.8-0.4-1.2-0.5
		c-0.4-0.1-0.9-0.1-1.4-0.1h-6.1V18.1z"/>
	<path d="M259.4,8.3h4l9.8,15.8h0.1V8.3h3.6v21.4h-4L263.1,14H263v15.8h-3.6V8.3z"/>
	<path d="M287,8.3h4l8.2,21.4h-4l-2-5.7h-8.5l-2,5.7h-3.9L287,8.3z M285.7,21.2h6.5L289,12h-0.1L285.7,21.2z"/>
	<path d="M312.1,22.6c0,0.8,0.1,1.5,0.4,2.1c0.3,0.6,0.7,1.1,1.2,1.4c0.5,0.4,1.1,0.6,1.7,0.8c0.7,0.2,1.4,0.3,2.1,0.3
		c0.8,0,1.5-0.1,2.1-0.3c0.6-0.2,1.1-0.4,1.4-0.7c0.4-0.3,0.6-0.6,0.8-1s0.2-0.8,0.2-1.2c0-0.8-0.2-1.4-0.6-1.8s-0.8-0.7-1.2-0.8
		c-0.8-0.3-1.6-0.5-2.7-0.8c-1-0.2-2.3-0.6-3.7-1c-0.9-0.2-1.7-0.6-2.3-0.9c-0.6-0.4-1.1-0.8-1.5-1.3s-0.6-1-0.8-1.5
		c-0.2-0.5-0.2-1.1-0.2-1.6c0-1.1,0.2-2,0.7-2.8c0.5-0.8,1-1.4,1.8-2s1.6-0.9,2.5-1.2C315,8,316,7.8,317,7.8c1.1,0,2.2,0.1,3.2,0.4
		c1,0.3,1.9,0.7,2.6,1.3s1.3,1.3,1.8,2.1c0.4,0.9,0.7,1.8,0.7,3h-3.8c-0.1-1.4-0.6-2.4-1.4-2.9c-0.8-0.6-1.9-0.9-3.2-0.9
		c-0.4,0-0.9,0-1.4,0.1c-0.5,0.1-0.9,0.2-1.3,0.4s-0.7,0.5-0.9,0.9c-0.2,0.4-0.4,0.8-0.4,1.4c0,0.8,0.2,1.4,0.7,1.8
		c0.5,0.4,1.1,0.8,1.8,1c0.1,0,0.4,0.1,0.9,0.3s1.2,0.3,1.8,0.5c0.7,0.2,1.3,0.4,2,0.5s1.1,0.3,1.4,0.4c0.7,0.2,1.3,0.5,1.8,0.9
		c0.5,0.4,1,0.8,1.3,1.3c0.3,0.5,0.6,1,0.8,1.6c0.2,0.6,0.3,1.1,0.3,1.7c0,1.2-0.2,2.2-0.7,3.1s-1.1,1.5-1.9,2.1
		c-0.8,0.5-1.7,0.9-2.7,1.2c-1,0.2-2.1,0.4-3.1,0.4c-1.2,0-2.4-0.1-3.4-0.4c-1.1-0.3-2-0.8-2.8-1.4c-0.8-0.6-1.4-1.4-1.9-2.4
		c-0.5-1-0.7-2.1-0.8-3.4H312.1z"/>
	<path d="M326.9,14.2h3.8l4,11.6h0.1l3.9-11.6h3.6l-6,16.3c-0.3,0.7-0.6,1.4-0.8,2c-0.3,0.6-0.6,1.2-1,1.7c-0.4,0.5-0.9,0.9-1.5,1.2
		c-0.6,0.3-1.3,0.4-2.2,0.4c-0.8,0-1.6-0.1-2.4-0.2v-2.9c0.3,0,0.5,0.1,0.8,0.1c0.3,0,0.5,0.1,0.8,0.1c0.4,0,0.7,0,1-0.1
		s0.5-0.2,0.6-0.4c0.2-0.2,0.3-0.4,0.4-0.7c0.1-0.3,0.2-0.6,0.3-0.9l0.4-1.2L326.9,14.2z"/>
	<path d="M344.1,14.2h3.2v2.2h0.1c0.3-0.4,0.5-0.7,0.8-1s0.6-0.6,1-0.8c0.4-0.2,0.8-0.4,1.3-0.5c0.5-0.1,1-0.2,1.7-0.2
		c0.9,0,1.8,0.2,2.6,0.6c0.8,0.4,1.4,1.1,1.7,1.9c0.6-0.8,1.2-1.4,2-1.9c0.8-0.5,1.7-0.7,2.9-0.7c1.6,0,2.9,0.4,3.8,1.2
		c0.9,0.8,1.4,2.1,1.4,4v10.7h-3.4v-9.1c0-0.6,0-1.2-0.1-1.7c0-0.5-0.2-0.9-0.3-1.3c-0.2-0.4-0.5-0.7-0.9-0.9
		c-0.4-0.2-0.9-0.3-1.6-0.3c-1.2,0-2,0.4-2.5,1.1c-0.5,0.7-0.8,1.7-0.8,3.1v9.1h-3.4v-10c0-1.1-0.2-1.9-0.6-2.4s-1.1-0.8-2.1-0.8
		c-0.4,0-0.9,0.1-1.3,0.3s-0.8,0.4-1.1,0.8c-0.3,0.3-0.6,0.8-0.8,1.3s-0.3,1.1-0.3,1.7v9.2h-3.4V14.2z"/>
	<path d="M370.3,14.2h3.2v2.1h0.1c0.5-0.9,1.1-1.5,2-1.9c0.9-0.4,1.8-0.6,2.8-0.6c1.2,0,2.3,0.2,3.2,0.6c0.9,0.4,1.7,1,2.3,1.8
		c0.6,0.8,1,1.6,1.3,2.6c0.3,1,0.5,2.1,0.5,3.2c0,1-0.1,2.1-0.4,3c-0.3,1-0.7,1.8-1.2,2.6c-0.6,0.8-1.2,1.4-2.1,1.8
		c-0.8,0.4-1.8,0.7-3,0.7c-0.5,0-1,0-1.5-0.1c-0.5-0.1-1-0.2-1.4-0.4s-0.9-0.5-1.3-0.8c-0.4-0.3-0.7-0.7-1-1.1h-0.1v7.7h-3.4V14.2z
		 M382.3,22c0-0.7-0.1-1.4-0.3-2c-0.2-0.7-0.4-1.2-0.8-1.8c-0.4-0.5-0.8-0.9-1.3-1.2c-0.5-0.3-1.2-0.5-1.9-0.5
		c-1.4,0-2.5,0.5-3.3,1.5c-0.7,1-1.1,2.3-1.1,4c0,0.8,0.1,1.5,0.3,2.2c0.2,0.7,0.5,1.2,0.9,1.7s0.8,0.9,1.4,1.1
		c0.5,0.3,1.1,0.4,1.8,0.4c0.8,0,1.4-0.2,2-0.5c0.5-0.3,1-0.7,1.3-1.2c0.3-0.5,0.6-1.1,0.8-1.7C382.2,23.4,382.3,22.7,382.3,22z"/>
	<path d="M395.7,30.2c-1.2,0-2.3-0.2-3.3-0.6s-1.8-1-2.5-1.7c-0.7-0.7-1.2-1.6-1.5-2.6c-0.4-1-0.5-2.1-0.5-3.3
		c0-1.2,0.2-2.3,0.5-3.3c0.3-1,0.9-1.9,1.5-2.6c0.7-0.7,1.5-1.3,2.5-1.7c1-0.4,2.1-0.6,3.3-0.6c1.2,0,2.3,0.2,3.3,0.6
		c1,0.4,1.8,1,2.5,1.7c0.7,0.7,1.2,1.6,1.5,2.6c0.3,1,0.5,2.1,0.5,3.3c0,1.2-0.2,2.3-0.5,3.3c-0.3,1-0.9,1.9-1.5,2.6
		c-0.7,0.7-1.5,1.3-2.5,1.7C398,30,396.9,30.2,395.7,30.2z M395.7,27.5c0.8,0,1.4-0.2,2-0.5s1-0.7,1.4-1.3c0.4-0.5,0.6-1.1,0.8-1.8
		c0.2-0.6,0.3-1.3,0.3-2c0-0.7-0.1-1.3-0.3-2c-0.2-0.7-0.4-1.2-0.8-1.8c-0.4-0.5-0.8-0.9-1.4-1.2c-0.6-0.3-1.2-0.5-2-0.5
		c-0.8,0-1.4,0.2-2,0.5c-0.6,0.3-1,0.7-1.4,1.2c-0.4,0.5-0.6,1.1-0.8,1.8s-0.3,1.3-0.3,2c0,0.7,0.1,1.3,0.3,2s0.4,1.2,0.8,1.8
		c0.4,0.5,0.8,0.9,1.4,1.3S394.9,27.5,395.7,27.5z"/>
	<path d="M408.9,24.8c0.1,1,0.5,1.7,1.1,2.1c0.7,0.4,1.5,0.6,2.4,0.6c0.3,0,0.7,0,1.1-0.1c0.4,0,0.8-0.1,1.2-0.3
		c0.4-0.1,0.7-0.3,0.9-0.6c0.2-0.3,0.3-0.6,0.3-1.1s-0.2-0.8-0.5-1.1c-0.3-0.3-0.7-0.5-1.2-0.7c-0.5-0.2-1-0.3-1.6-0.4
		c-0.6-0.1-1.2-0.2-1.8-0.4c-0.6-0.1-1.3-0.3-1.8-0.5c-0.6-0.2-1.1-0.5-1.6-0.8c-0.5-0.3-0.8-0.8-1.1-1.3c-0.3-0.5-0.4-1.2-0.4-2
		c0-0.8,0.2-1.5,0.6-2.1c0.4-0.6,0.9-1,1.6-1.4c0.6-0.3,1.3-0.6,2.1-0.7c0.8-0.1,1.5-0.2,2.2-0.2c0.8,0,1.6,0.1,2.3,0.3
		c0.7,0.2,1.4,0.4,2,0.8c0.6,0.4,1.1,0.9,1.5,1.5c0.4,0.6,0.6,1.3,0.7,2.2h-3.6c-0.2-0.8-0.5-1.4-1.1-1.6c-0.6-0.3-1.3-0.4-2-0.4
		c-0.2,0-0.5,0-0.9,0.1s-0.6,0.1-0.9,0.2s-0.5,0.3-0.7,0.5s-0.3,0.5-0.3,0.8c0,0.4,0.1,0.8,0.4,1c0.3,0.3,0.7,0.5,1.1,0.6
		c0.5,0.2,1,0.3,1.6,0.4c0.6,0.1,1.2,0.3,1.9,0.4c0.6,0.1,1.2,0.3,1.8,0.5c0.6,0.2,1.1,0.5,1.6,0.8c0.5,0.3,0.9,0.8,1.1,1.3
		c0.3,0.5,0.4,1.2,0.4,1.9c0,0.9-0.2,1.7-0.6,2.3s-1,1.2-1.6,1.6c-0.7,0.4-1.4,0.7-2.2,0.9c-0.8,0.2-1.6,0.3-2.4,0.3
		c-1,0-1.9-0.1-2.7-0.3c-0.8-0.2-1.6-0.6-2.2-1c-0.6-0.5-1.1-1-1.4-1.7c-0.3-0.7-0.5-1.5-0.6-2.4H408.9z"/>
	<path d="M422,8.3h3.4v3.2H422V8.3z M422,14.2h3.4v15.5H422V14.2z"/>
	<path d="M442.8,29.8h-3.4v-2.2h-0.1c-0.4,0.8-1,1.4-1.9,1.9s-1.7,0.7-2.5,0.7c-2,0-3.5-0.5-4.4-1.5c-0.9-1-1.4-2.5-1.4-4.6v-9.8
		h3.4v9.5c0,1.4,0.3,2.3,0.8,2.9c0.5,0.6,1.2,0.8,2.2,0.8c0.7,0,1.3-0.1,1.8-0.3c0.5-0.2,0.9-0.5,1.2-0.9c0.3-0.4,0.5-0.8,0.6-1.3
		c0.1-0.5,0.2-1.1,0.2-1.7v-9h3.4V29.8z"/>
	<path d="M446.4,14.2h3.2v2.2h0.1c0.3-0.4,0.5-0.7,0.8-1s0.6-0.6,1-0.8c0.4-0.2,0.8-0.4,1.3-0.5c0.5-0.1,1-0.2,1.7-0.2
		c0.9,0,1.8,0.2,2.6,0.6c0.8,0.4,1.4,1.1,1.7,1.9c0.6-0.8,1.2-1.4,2-1.9c0.8-0.5,1.7-0.7,2.9-0.7c1.6,0,2.9,0.4,3.8,1.2
		c0.9,0.8,1.4,2.1,1.4,4v10.7h-3.4v-9.1c0-0.6,0-1.2-0.1-1.7c0-0.5-0.2-0.9-0.3-1.3c-0.2-0.4-0.5-0.7-0.9-0.9
		c-0.4-0.2-0.9-0.3-1.6-0.3c-1.2,0-2,0.4-2.5,1.1c-0.5,0.7-0.8,1.7-0.8,3.1v9.1h-3.4v-10c0-1.1-0.2-1.9-0.6-2.4s-1.1-0.8-2.1-0.8
		c-0.4,0-0.9,0.1-1.3,0.3s-0.8,0.4-1.1,0.8c-0.3,0.3-0.6,0.8-0.8,1.3s-0.3,1.1-0.3,1.7v9.2h-3.4V14.2z"/>
</g>
<g>
	<path d="M118.3,239.6h14.8v3.2h-11v5.6h9.7v3.1h-9.7v9.5h-3.8V239.6z"/>
	<path d="M138.3,254.1c0,0.6,0.1,1.2,0.3,1.7c0.2,0.6,0.4,1,0.8,1.5c0.3,0.4,0.8,0.8,1.3,1c0.5,0.3,1.1,0.4,1.9,0.4
		c1,0,1.8-0.2,2.4-0.6c0.6-0.4,1.1-1.1,1.4-1.9h3.2c-0.2,0.8-0.5,1.6-0.9,2.2c-0.4,0.7-1,1.2-1.6,1.7c-0.6,0.5-1.3,0.8-2.1,1
		c-0.8,0.2-1.6,0.3-2.4,0.3c-1.2,0-2.3-0.2-3.2-0.6c-0.9-0.4-1.7-1-2.4-1.7c-0.7-0.7-1.1-1.6-1.5-2.6c-0.3-1-0.5-2.1-0.5-3.3
		c0-1.1,0.2-2.1,0.5-3.1c0.3-1,0.8-1.9,1.5-2.6c0.6-0.8,1.4-1.3,2.4-1.8c0.9-0.4,2-0.7,3.1-0.7c1.2,0,2.3,0.3,3.3,0.8
		c1,0.5,1.8,1.2,2.4,2c0.6,0.8,1.1,1.8,1.4,2.9c0.3,1.1,0.4,2.2,0.2,3.4H138.3z M146.3,251.9c0-0.5-0.2-1.1-0.3-1.6
		c-0.2-0.5-0.5-0.9-0.8-1.3c-0.3-0.4-0.7-0.7-1.2-0.9c-0.5-0.2-1-0.3-1.6-0.3c-0.6,0-1.1,0.1-1.6,0.3c-0.5,0.2-0.9,0.5-1.3,0.9
		s-0.6,0.8-0.8,1.3c-0.2,0.5-0.3,1-0.3,1.6H146.3z"/>
	<path d="M152.4,239.6h3.4v7.9h0.1c0.2-0.4,0.5-0.7,0.9-1c0.3-0.3,0.7-0.6,1.1-0.8c0.4-0.2,0.8-0.4,1.3-0.5c0.5-0.1,0.9-0.2,1.3-0.2
		c1.2,0,2.3,0.2,3.2,0.6c0.9,0.4,1.7,1,2.3,1.8c0.6,0.8,1,1.6,1.3,2.6c0.3,1,0.5,2.1,0.5,3.2c0,1-0.1,2-0.4,3
		c-0.3,1-0.7,1.8-1.2,2.6c-0.6,0.8-1.2,1.3-2.1,1.8c-0.8,0.5-1.8,0.7-3,0.7c-0.5,0-1,0-1.6-0.1c-0.5-0.1-1-0.2-1.5-0.4
		c-0.5-0.2-0.9-0.5-1.3-0.8c-0.4-0.3-0.7-0.7-1-1.3h-0.1v2.1h-3.2V239.6z M164.3,253.3c0-0.7-0.1-1.4-0.3-2s-0.5-1.2-0.8-1.8
		s-0.8-0.9-1.4-1.2c-0.5-0.3-1.2-0.5-1.9-0.5c-1.4,0-2.5,0.5-3.3,1.5c-0.7,1-1.1,2.3-1.1,4c0,0.8,0.1,1.5,0.3,2.2
		c0.2,0.7,0.5,1.2,0.9,1.7c0.4,0.5,0.8,0.9,1.4,1.1c0.5,0.3,1.1,0.4,1.8,0.4c0.8,0,1.4-0.2,2-0.5s1-0.7,1.3-1.2
		c0.3-0.5,0.6-1.1,0.8-1.7C164.3,254.6,164.3,253.9,164.3,253.3z"/>
	<path d="M170.6,245.5h3.2v3h0.1c0.1-0.4,0.3-0.8,0.6-1.2c0.3-0.4,0.6-0.8,1-1.1c0.4-0.3,0.9-0.6,1.4-0.8c0.5-0.2,1-0.3,1.5-0.3
		c0.4,0,0.7,0,0.8,0c0.2,0,0.3,0,0.5,0.1v3.3c-0.2,0-0.5-0.1-0.7-0.1c-0.3,0-0.5,0-0.7,0c-0.6,0-1.1,0.1-1.6,0.3s-1,0.6-1.3,1
		s-0.7,1-0.9,1.7s-0.3,1.4-0.3,2.3v7.4h-3.4V245.5z"/>
	<path d="M194.8,261h-3.4v-2.2h-0.1c-0.4,0.8-1,1.4-1.9,1.9s-1.7,0.7-2.5,0.7c-2,0-3.5-0.5-4.4-1.5s-1.4-2.5-1.4-4.6v-9.8h3.4v9.5
		c0,1.4,0.3,2.3,0.8,2.9c0.5,0.6,1.2,0.8,2.2,0.8c0.7,0,1.3-0.1,1.8-0.3c0.5-0.2,0.9-0.5,1.2-0.9s0.5-0.8,0.6-1.3
		c0.1-0.5,0.2-1.1,0.2-1.7v-9h3.4V261z"/>
	<path d="M211.4,257.6c0,0.4,0.1,0.7,0.2,0.9c0.1,0.2,0.3,0.3,0.6,0.3c0.1,0,0.2,0,0.4,0s0.3,0,0.5-0.1v2.4c-0.1,0-0.3,0.1-0.5,0.1
		c-0.2,0-0.4,0.1-0.6,0.1s-0.4,0.1-0.6,0.1c-0.2,0-0.4,0-0.5,0c-0.7,0-1.3-0.1-1.7-0.4s-0.8-0.8-0.9-1.5c-0.7,0.7-1.5,1.1-2.5,1.4
		s-1.9,0.5-2.9,0.5c-0.7,0-1.4-0.1-2-0.3c-0.6-0.2-1.2-0.5-1.7-0.8c-0.5-0.4-0.9-0.8-1.2-1.4c-0.3-0.6-0.4-1.2-0.4-2
		c0-1,0.2-1.7,0.5-2.3c0.3-0.6,0.8-1.1,1.4-1.4c0.6-0.3,1.2-0.6,1.9-0.7c0.7-0.2,1.4-0.3,2.1-0.3c0.6-0.1,1.2-0.2,1.8-0.3
		c0.6,0,1.1-0.1,1.5-0.3c0.4-0.1,0.8-0.3,1-0.6s0.4-0.6,0.4-1.1c0-0.4-0.1-0.8-0.3-1.1s-0.5-0.5-0.8-0.6c-0.3-0.1-0.7-0.2-1-0.3
		c-0.4,0-0.7-0.1-1.1-0.1c-1,0-1.8,0.2-2.4,0.6s-1,1-1,1.9h-3.4c0.1-1,0.3-1.8,0.7-2.5s1-1.2,1.6-1.6c0.6-0.4,1.4-0.7,2.2-0.8
		c0.8-0.2,1.7-0.2,2.5-0.2c0.8,0,1.5,0.1,2.2,0.2c0.7,0.2,1.4,0.4,2,0.8c0.6,0.4,1.1,0.8,1.4,1.4c0.4,0.6,0.5,1.3,0.5,2.1V257.6z
		 M208,253.2c-0.5,0.3-1.2,0.5-1.9,0.6c-0.8,0.1-1.5,0.2-2.3,0.3c-0.4,0.1-0.7,0.1-1,0.3c-0.3,0.1-0.6,0.3-0.9,0.5s-0.5,0.4-0.6,0.8
		c-0.2,0.3-0.2,0.7-0.2,1.1c0,0.4,0.1,0.7,0.3,1c0.2,0.3,0.5,0.5,0.8,0.6c0.3,0.1,0.6,0.3,1,0.3c0.4,0.1,0.7,0.1,1,0.1
		c0.4,0,0.8,0,1.2-0.1c0.4-0.1,0.9-0.3,1.2-0.5c0.4-0.2,0.7-0.5,1-0.9c0.3-0.4,0.4-0.8,0.4-1.4V253.2z"/>
	<path d="M215.1,245.5h3.2v3h0.1c0.1-0.4,0.3-0.8,0.6-1.2c0.3-0.4,0.6-0.8,1-1.1c0.4-0.3,0.9-0.6,1.4-0.8c0.5-0.2,1-0.3,1.5-0.3
		c0.4,0,0.7,0,0.8,0c0.2,0,0.3,0,0.5,0.1v3.3c-0.2,0-0.5-0.1-0.7-0.1c-0.3,0-0.5,0-0.7,0c-0.6,0-1.1,0.1-1.6,0.3s-1,0.6-1.3,1
		s-0.7,1-0.9,1.7s-0.3,1.4-0.3,2.3v7.4h-3.4V245.5z"/>
	<path d="M224,245.5h3.8l4,11.6h0.1l3.9-11.6h3.6l-6,16.3c-0.3,0.7-0.6,1.4-0.8,2c-0.3,0.6-0.6,1.2-1,1.7c-0.4,0.5-0.9,0.9-1.5,1.2
		c-0.6,0.3-1.3,0.4-2.2,0.4c-0.8,0-1.6-0.1-2.4-0.2v-2.9c0.3,0,0.5,0.1,0.8,0.1c0.3,0,0.5,0.1,0.8,0.1c0.4,0,0.7,0,1-0.1
		c0.3-0.1,0.5-0.2,0.6-0.4c0.2-0.2,0.3-0.4,0.4-0.7s0.2-0.6,0.3-0.9l0.4-1.2L224,245.5z"/>
	<path d="M249.4,243.5c0.7,0,1.4-0.1,2.1-0.2c0.7-0.1,1.3-0.3,1.8-0.6c0.5-0.3,1-0.6,1.4-1.1c0.4-0.4,0.6-1,0.8-1.6h2.8v21h-3.8
		v-14.8h-5.2V243.5z"/>
	<path d="M271.3,248.7c0.6,0,1.1,0,1.7-0.1c0.6-0.1,1.1-0.3,1.5-0.5c0.4-0.2,0.8-0.6,1.1-1c0.3-0.4,0.4-1,0.4-1.6
		c0-0.9-0.3-1.6-0.9-2.2c-0.6-0.5-1.4-0.8-2.4-0.8c-0.6,0-1.1,0.1-1.6,0.4c-0.4,0.2-0.8,0.6-1.1,1c-0.3,0.4-0.5,0.9-0.6,1.4
		c-0.1,0.5-0.2,1-0.2,1.6h-3.4c0-1,0.2-2,0.6-2.8s0.8-1.6,1.4-2.3c0.6-0.6,1.3-1.1,2.1-1.5s1.8-0.5,2.9-0.5c0.8,0,1.6,0.1,2.4,0.4
		c0.8,0.2,1.5,0.6,2.1,1s1.1,1,1.5,1.8s0.6,1.5,0.6,2.4c0,1.1-0.2,2-0.7,2.8c-0.5,0.8-1.2,1.4-2.2,1.7v0.1c1.2,0.2,2.1,0.8,2.8,1.8
		c0.7,1,1,2.1,1,3.5c0,1-0.2,1.9-0.6,2.7c-0.4,0.8-0.9,1.5-1.6,2c-0.7,0.5-1.5,1-2.4,1.3c-0.9,0.3-1.9,0.5-2.9,0.5
		c-1.2,0-2.3-0.2-3.2-0.5c-0.9-0.3-1.7-0.8-2.3-1.5c-0.6-0.6-1.1-1.4-1.4-2.3c-0.3-0.9-0.5-1.9-0.5-3h3.4c0,1.3,0.3,2.3,0.9,3.2
		c0.7,0.9,1.7,1.3,3,1.3c1.1,0,2.1-0.3,2.9-1c0.8-0.6,1.2-1.6,1.2-2.8c0-0.8-0.2-1.5-0.5-2c-0.3-0.5-0.7-0.8-1.3-1.1
		c-0.5-0.2-1.1-0.4-1.8-0.5c-0.7-0.1-1.3-0.1-2-0.1V248.7z"/>
	<path d="M305,261h-14.3c0-1.7,0.4-3.3,1.3-4.6s1.9-2.4,3.4-3.4c0.7-0.5,1.4-1,2.1-1.5c0.7-0.5,1.4-1,2-1.5s1.1-1.1,1.5-1.8
		c0.4-0.6,0.6-1.4,0.6-2.2c0-0.4,0-0.8-0.1-1.2c-0.1-0.4-0.3-0.8-0.5-1.2s-0.6-0.7-1.1-0.9c-0.5-0.2-1.1-0.4-1.8-0.4
		c-0.7,0-1.2,0.1-1.7,0.4c-0.5,0.3-0.8,0.6-1.1,1.1c-0.3,0.5-0.5,1-0.6,1.7c-0.1,0.6-0.2,1.3-0.2,2.1H291c0-1.2,0.2-2.2,0.5-3.2
		c0.3-1,0.8-1.8,1.4-2.6c0.6-0.7,1.4-1.3,2.3-1.7s1.9-0.6,3.1-0.6c1.3,0,2.3,0.2,3.2,0.6c0.9,0.4,1.6,1,2.1,1.6
		c0.5,0.6,0.9,1.3,1.1,2.1c0.2,0.8,0.3,1.5,0.3,2.1c0,0.8-0.1,1.6-0.4,2.3c-0.3,0.7-0.6,1.3-1.1,1.9c-0.4,0.6-0.9,1.1-1.5,1.6
		c-0.6,0.5-1.1,0.9-1.7,1.4c-0.6,0.4-1.2,0.8-1.8,1.2c-0.6,0.4-1.2,0.8-1.7,1.1c-0.5,0.4-1,0.8-1.3,1.2c-0.4,0.4-0.6,0.8-0.8,1.3
		H305V261z"/>
	<path d="M314.5,239.6c1.5,0,2.7,0.3,3.7,1c1,0.7,1.7,1.6,2.2,2.6c0.5,1.1,0.9,2.2,1.1,3.5c0.2,1.3,0.3,2.5,0.3,3.7
		s-0.1,2.4-0.3,3.7c-0.2,1.3-0.6,2.5-1.1,3.5c-0.5,1.1-1.3,2-2.2,2.6c-1,0.7-2.2,1-3.7,1s-2.7-0.3-3.7-1c-1-0.7-1.7-1.6-2.2-2.6
		c-0.5-1.1-0.9-2.2-1.1-3.5c-0.2-1.3-0.3-2.5-0.3-3.7s0.1-2.4,0.3-3.7c0.2-1.3,0.5-2.5,1.1-3.5c0.5-1.1,1.3-2,2.2-2.6
		C311.8,239.9,313,239.6,314.5,239.6z M314.5,258.6c0.7,0,1.4-0.2,1.9-0.6c0.5-0.4,0.9-1,1.2-1.7c0.3-0.7,0.5-1.6,0.6-2.6
		c0.1-1,0.2-2,0.2-3.1c0-1.1-0.1-2.1-0.2-3.1c-0.1-1-0.3-1.8-0.6-2.6s-0.7-1.3-1.2-1.8c-0.5-0.4-1.1-0.6-1.9-0.6
		c-0.8,0-1.4,0.2-1.9,0.6s-0.9,1-1.2,1.8s-0.5,1.6-0.6,2.6c-0.1,1-0.2,2-0.2,3.1c0,1.1,0.1,2.1,0.2,3.1c0.1,1,0.3,1.8,0.6,2.6
		c0.3,0.7,0.7,1.3,1.2,1.7C313.1,258.4,313.7,258.6,314.5,258.6z"/>
	<path d="M338.3,261H324c0-1.7,0.4-3.3,1.3-4.6s1.9-2.4,3.4-3.4c0.7-0.5,1.4-1,2.1-1.5c0.7-0.5,1.4-1,2-1.5s1.1-1.1,1.5-1.8
		c0.4-0.6,0.6-1.4,0.6-2.2c0-0.4,0-0.8-0.1-1.2c-0.1-0.4-0.3-0.8-0.5-1.2s-0.6-0.7-1.1-0.9c-0.5-0.2-1.1-0.4-1.8-0.4
		c-0.7,0-1.2,0.1-1.7,0.4c-0.5,0.3-0.8,0.6-1.1,1.1c-0.3,0.5-0.5,1-0.6,1.7c-0.1,0.6-0.2,1.3-0.2,2.1h-3.4c0-1.2,0.2-2.2,0.5-3.2
		c0.3-1,0.8-1.8,1.4-2.6c0.6-0.7,1.4-1.3,2.3-1.7s1.9-0.6,3.1-0.6c1.3,0,2.3,0.2,3.2,0.6c0.9,0.4,1.6,1,2.1,1.6
		c0.5,0.6,0.9,1.3,1.1,2.1c0.2,0.8,0.3,1.5,0.3,2.1c0,0.8-0.1,1.6-0.4,2.3c-0.3,0.7-0.6,1.3-1.1,1.9c-0.4,0.6-0.9,1.1-1.5,1.6
		c-0.6,0.5-1.1,0.9-1.7,1.4c-0.6,0.4-1.2,0.8-1.8,1.2c-0.6,0.4-1.2,0.8-1.7,1.1c-0.5,0.4-1,0.8-1.3,1.2c-0.4,0.4-0.6,0.8-0.8,1.3
		h10.2V261z"/>
	<path d="M347.9,239.6c1.5,0,2.7,0.3,3.7,1c1,0.7,1.7,1.6,2.2,2.6c0.5,1.1,0.9,2.2,1.1,3.5c0.2,1.3,0.3,2.5,0.3,3.7
		s-0.1,2.4-0.3,3.7c-0.2,1.3-0.6,2.5-1.1,3.5c-0.5,1.1-1.3,2-2.2,2.6c-1,0.7-2.2,1-3.7,1s-2.7-0.3-3.7-1c-1-0.7-1.7-1.6-2.2-2.6
		c-0.5-1.1-0.9-2.2-1.1-3.5c-0.2-1.3-0.3-2.5-0.3-3.7s0.1-2.4,0.3-3.7c0.2-1.3,0.5-2.5,1.1-3.5c0.5-1.1,1.3-2,2.2-2.6
		C345.1,239.9,346.4,239.6,347.9,239.6z M347.9,258.6c0.7,0,1.4-0.2,1.9-0.6c0.5-0.4,0.9-1,1.2-1.7c0.3-0.7,0.5-1.6,0.6-2.6
		c0.1-1,0.2-2,0.2-3.1c0-1.1-0.1-2.1-0.2-3.1c-0.1-1-0.3-1.8-0.6-2.6s-0.7-1.3-1.2-1.8c-0.5-0.4-1.1-0.6-1.9-0.6
		c-0.8,0-1.4,0.2-1.9,0.6s-0.9,1-1.2,1.8s-0.5,1.6-0.6,2.6c-0.1,1-0.2,2-0.2,3.1c0,1.1,0.1,2.1,0.2,3.1c0.1,1,0.3,1.8,0.6,2.6
		c0.3,0.7,0.7,1.3,1.2,1.7C346.5,258.4,347.1,258.6,347.9,258.6z"/>
</g>
</svg>
